<svg width="126" height="37" viewBox="0 0 126 37" fill="none" xmlns="http://www.w3.org/2000/svg">
<g clip-path="url(#clip0_6_4317)">
<path d="M126 7.82842C126 7.55579 126 7.24421 126 6.97158C125.956 6.34842 125.956 5.72526 125.823 5.10211C125.69 4.47895 125.512 3.89474 125.158 3.34947C124.848 2.80421 124.405 2.29789 123.917 1.83053C123.429 1.40211 122.853 1.01263 122.233 0.74C121.568 0.467368 120.948 0.272632 120.238 0.155789C119.529 0.0389474 118.82 0 118.111 0C117.801 0 117.446 0 117.136 0C116.737 0 116.383 0 115.984 0H10.0605C9.66163 0 9.30707 0 8.9082 0C8.59796 0 8.28772 0 7.93317 0C7.22406 0 6.51495 0.0389474 5.80584 0.155789C5.09673 0.272632 4.43194 0.467368 3.81147 0.74C3.191 1.05158 2.61484 1.40211 2.08301 1.83053C1.5955 2.29789 1.19662 2.80421 0.842068 3.34947C0.531833 3.89474 0.310236 4.47895 0.177278 5.10211C0.0443194 5.72526 0 6.34842 0 6.97158C0 7.24421 0 7.55579 0 7.82842C0 8.17895 0 8.49053 0 8.84105V28.1979C0 28.5484 0 28.86 0 29.2105C0 29.4832 0 29.7947 0 30.0674C0 30.6905 0.0443194 31.3137 0.177278 31.9368C0.310236 32.56 0.487513 33.1442 0.842068 33.6895C1.1523 34.2347 1.5955 34.7411 2.08301 35.1695C2.57052 35.5979 3.14668 35.9874 3.76715 36.26C4.38762 36.5326 5.05241 36.7274 5.76152 36.8442C6.47063 36.9611 7.17974 37 7.88885 37C8.19909 37 8.55364 37 8.86388 37C9.26275 37 9.61731 37 10.0162 37H115.94C116.338 37 116.693 37 117.092 37C117.402 37 117.757 37 118.067 37C118.776 37 119.485 36.9611 120.194 36.8442C120.903 36.7274 121.568 36.5326 122.189 36.26C122.809 35.9874 123.385 35.5979 123.873 35.1695C124.36 34.7411 124.803 34.2347 125.114 33.6895C125.424 33.1442 125.645 32.56 125.778 31.9368C125.911 31.3137 125.956 30.6905 125.956 30.0674C125.956 29.7947 125.956 29.4832 125.956 29.2105C125.956 28.86 125.956 28.5484 125.956 28.1979V8.84105C126 8.49053 126 8.14 126 7.82842Z" fill="#030202"/>
<path d="M115.94 0.778947H117.092C117.358 0.778947 117.624 0.778947 117.89 0.778947H118.067C118.599 0.778947 119.352 0.817895 120.061 0.934737C120.682 1.05158 121.258 1.20737 121.834 1.44105C122.366 1.67474 122.898 2.02526 123.341 2.37579C123.784 2.76526 124.139 3.19368 124.405 3.66105C124.67 4.12842 124.848 4.63474 124.981 5.21895C125.114 5.80316 125.158 6.38737 125.158 6.93263C125.158 7.20526 125.158 7.47789 125.158 7.78947C125.158 8.10105 125.158 8.45158 125.158 8.8021V28.1589C125.158 28.5095 125.158 28.8211 125.158 29.1716C125.158 29.4442 125.158 29.7168 125.158 29.9895C125.114 30.5737 125.114 31.1579 124.981 31.7421C124.892 32.2874 124.67 32.7937 124.405 33.3C124.094 33.8063 123.74 34.2347 123.297 34.6242C122.853 35.0137 122.366 35.3253 121.834 35.5589C121.302 35.7926 120.726 35.9484 120.061 36.0653C119.396 36.1821 118.687 36.2211 118.111 36.2211C117.801 36.2211 117.491 36.2211 117.136 36.2211C116.737 36.2211 116.383 36.2211 115.984 36.2211H10.0605C9.66163 36.2211 9.30707 36.2211 8.9082 36.2211C8.59796 36.2211 8.28772 36.2211 7.97749 36.2211C7.40134 36.2211 6.69223 36.1821 5.98312 36.0653C5.31833 35.9484 4.74217 35.7926 4.21034 35.5589C3.67851 35.3253 3.14668 35.0137 2.70348 34.5853C2.26029 34.1958 1.90573 33.7674 1.63982 33.3C1.3739 32.8326 1.19662 32.3263 1.06367 31.7421C0.930707 31.1579 0.886388 30.5347 0.886388 30.0284C0.886388 29.8337 0.886388 29.6389 0.886388 29.4442V29.2105V28.1979V8.84105V7.82842V7.55579C0.886388 7.36105 0.886388 7.16632 0.886388 6.97158C0.886388 6.50421 0.930707 5.8421 1.06367 5.21895C1.19662 4.63474 1.3739 4.12842 1.63982 3.66105C1.90573 3.15474 2.30461 2.72632 2.70348 2.33684C3.14668 1.94737 3.63419 1.63579 4.16602 1.40211C4.69785 1.16842 5.27401 0.973684 5.9388 0.895789C6.69223 0.817895 7.40134 0.778947 7.93317 0.778947H8.15477C8.42068 0.778947 8.64228 0.778947 8.9082 0.778947H10.0605H115.94ZM115.94 0H10.0162C9.61731 0 9.26275 0 8.86388 0C8.55364 0 8.2434 0 7.88885 0C7.17974 0 6.47063 0.0389474 5.76152 0.155789C5.09673 0.272632 4.43194 0.467368 3.81147 0.74C3.191 1.05158 2.61484 1.40211 2.08301 1.83053C1.5955 2.29789 1.19662 2.80421 0.842068 3.34947C0.531833 3.89474 0.310236 4.47895 0.177278 5.10211C0.0443194 5.72526 0 6.34842 0 6.97158C0 7.24421 0 7.55579 0 7.82842C0 8.17895 0 8.49053 0 8.84105V28.1979C0 28.5484 0 28.86 0 29.2105C0 29.4832 0 29.7947 0 30.0674C0 30.6905 0.0443194 31.3137 0.177278 31.9368C0.310236 32.56 0.487513 33.1442 0.842068 33.6895C1.1523 34.2347 1.5955 34.7411 2.08301 35.1695C2.57052 35.5979 3.14668 35.9874 3.76715 36.26C4.38762 36.5326 5.05241 36.7274 5.76152 36.8442C6.47063 36.9611 7.17974 37 7.88885 37C8.19909 37 8.55364 37 8.86388 37C9.26275 37 9.61731 37 10.0162 37H115.94C116.338 37 116.693 37 117.092 37C117.402 37 117.757 37 118.067 37C118.776 37 119.485 36.9611 120.194 36.8442C120.903 36.7274 121.568 36.5326 122.189 36.26C122.809 35.9874 123.385 35.5979 123.873 35.1695C124.36 34.7411 124.803 34.2347 125.114 33.6895C125.424 33.1442 125.645 32.56 125.778 31.9368C125.911 31.3137 125.956 30.6905 125.956 30.0674C125.956 29.7947 125.956 29.4832 125.956 29.2105C125.956 28.86 125.956 28.5484 125.956 28.1979V8.84105C125.956 8.49053 125.956 8.17895 125.956 7.82842C125.956 7.55579 125.956 7.24421 125.956 6.97158C125.911 6.34842 125.911 5.72526 125.778 5.10211C125.645 4.47895 125.468 3.89474 125.114 3.34947C124.803 2.80421 124.36 2.29789 123.873 1.83053C123.385 1.40211 122.809 1.01263 122.189 0.74C121.524 0.467368 120.903 0.272632 120.194 0.155789C119.485 0.0389474 118.776 0 118.067 0C117.757 0 117.402 0 117.092 0C116.737 0 116.338 0 115.94 0Z" fill="#909295"/>
<path d="M39.8431 8.06226C41.7045 8.06226 42.8125 9.07489 42.8125 10.7886C42.8125 12.5412 41.7488 13.5538 39.8431 13.5538H37.5828V8.06226H39.8431ZM38.5135 12.8138H39.7102C41.0397 12.8138 41.7932 12.1128 41.7932 10.8275C41.7932 9.5812 41.0397 8.8412 39.7102 8.8412H38.5135V12.8138Z" fill="white"/>
<path d="M43.8762 11.5285C43.8762 10.2043 44.7183 9.34741 46.0922 9.34741C47.4661 9.34741 48.3082 10.1653 48.3082 11.5285C48.3082 12.8916 47.4661 13.7095 46.0922 13.7095C44.7183 13.6706 43.8762 12.8527 43.8762 11.5285ZM47.3775 11.5285C47.3775 10.6327 46.9343 10.0874 46.0922 10.0874C45.2944 10.0874 44.8069 10.6327 44.8069 11.5285C44.8069 12.4243 45.2501 12.9695 46.0922 12.9695C46.9343 12.9306 47.3775 12.4243 47.3775 11.5285Z" fill="white"/>
<path d="M54.2912 13.5927H53.3162L52.3412 10.5158H52.2968L51.3218 13.5927H50.3468L49.0172 9.42529H49.9479L50.79 12.619H50.8786L51.8537 9.42529H52.74L53.7151 12.619H53.8037L54.6458 9.42529H55.5765L54.2912 13.5927Z" fill="white"/>
<path d="M56.6844 9.42531H57.5708V10.0874H57.6595C57.8811 9.62004 58.3686 9.34741 59.0777 9.34741C60.1414 9.34741 60.7175 9.89268 60.7175 10.9053V13.5927H59.7868V11.1C59.7868 10.4379 59.4766 10.0874 58.7675 10.0874C58.0584 10.0874 57.6152 10.4769 57.6152 11.139V13.5927H56.6844V9.42531Z" fill="white"/>
<path d="M62.2244 7.78955H63.1551V13.5927H62.2244V7.78955Z" fill="white"/>
<path d="M64.4403 11.5285C64.4403 10.2043 65.2824 9.34741 66.6563 9.34741C68.0302 9.34741 68.8722 10.1653 68.8722 11.5285C68.8722 12.8916 68.0302 13.7095 66.6563 13.7095C65.2824 13.6706 64.4403 12.8527 64.4403 11.5285ZM67.9859 11.5285C67.9859 10.6327 67.5427 10.0874 66.7006 10.0874C65.9029 10.0874 65.4153 10.6327 65.4153 11.5285C65.4153 12.4243 65.8585 12.9695 66.7006 12.9695C67.4983 12.9306 67.9859 12.4243 67.9859 11.5285Z" fill="white"/>
<path d="M69.8916 12.4243C69.8916 11.6843 70.5121 11.2558 71.6644 11.1779L72.9496 11.1V10.7495C72.9496 10.3211 72.6394 10.0485 71.9746 10.0485C71.4428 10.0485 71.0882 10.2043 70.9996 10.5158H70.1132C70.2018 9.81478 70.9553 9.34741 72.0633 9.34741C73.2599 9.34741 73.9247 9.85373 73.9247 10.7495V13.5927H73.0383V13.0085H72.9496C72.6837 13.4369 72.1519 13.6706 71.5314 13.6706C70.5564 13.6706 69.8916 13.1643 69.8916 12.4243ZM72.9496 12.0737V11.7232L71.7973 11.8011C71.1325 11.84 70.8666 12.0348 70.8666 12.3853C70.8666 12.7748 71.2212 12.9695 71.753 12.9695C72.4178 12.9695 72.9496 12.58 72.9496 12.0737Z" fill="white"/>
<path d="M75.1213 11.5285C75.1213 10.2043 75.8748 9.38639 77.0714 9.38639C77.7362 9.38639 78.268 9.65902 78.5339 10.1264H78.6226V7.78955H79.5533V13.5927H78.6669V12.9306H78.5783C78.3123 13.398 77.7362 13.6706 77.0714 13.6706C75.8748 13.6706 75.1213 12.8527 75.1213 11.5285ZM76.0964 11.5285C76.0964 12.4243 76.5839 12.9306 77.3816 12.9306C78.1794 12.9306 78.6669 12.3853 78.6669 11.5285C78.6669 10.6717 78.1794 10.1264 77.3816 10.1264C76.5839 10.0874 76.0964 10.6327 76.0964 11.5285Z" fill="white"/>
<path d="M83.4091 11.5285C83.4091 10.2043 84.2511 9.34741 85.625 9.34741C86.9989 9.34741 87.841 10.1653 87.841 11.5285C87.841 12.8916 86.9989 13.7095 85.625 13.7095C84.2511 13.6706 83.4091 12.8527 83.4091 11.5285ZM86.9103 11.5285C86.9103 10.6327 86.4671 10.0874 85.625 10.0874C84.8273 10.0874 84.3398 10.6327 84.3398 11.5285C84.3398 12.4243 84.783 12.9695 85.625 12.9695C86.4671 12.9306 86.9103 12.4243 86.9103 11.5285Z" fill="white"/>
<path d="M89.1262 9.42531H90.0126V10.0874H90.1012C90.3228 9.62004 90.8104 9.34741 91.5195 9.34741C92.5831 9.34741 93.1593 9.89268 93.1593 10.9053V13.5927H92.2286V11.1C92.2286 10.4379 91.9183 10.0874 91.2092 10.0874C90.5001 10.0874 90.0569 10.4769 90.0569 11.139V13.5927H89.1262V9.42531Z" fill="white"/>
<path d="M98.4776 8.4126V9.46418H99.4969V10.1263H98.4776V12.2684C98.4776 12.6968 98.6992 12.8915 99.1424 12.8915C99.2753 12.8915 99.364 12.8915 99.4969 12.8915V13.5926C99.364 13.6315 99.1867 13.6315 98.9651 13.6315C97.9458 13.6315 97.5026 13.32 97.5026 12.5021V10.1652H96.7491V9.46418H97.5026V8.4126H98.4776Z" fill="white"/>
<path d="M100.782 7.78955H101.713V10.0874H101.802C102.023 9.62008 102.555 9.34745 103.264 9.34745C104.283 9.34745 104.904 9.89271 104.904 10.9053V13.5927H103.973V11.1001C103.973 10.438 103.619 10.0874 102.954 10.0874C102.2 10.0874 101.757 10.5159 101.757 11.139V13.5538H100.827V7.78955H100.782Z" fill="white"/>
<path d="M110.311 12.4632C110.089 13.2032 109.336 13.6706 108.272 13.6706C106.898 13.6706 106.101 12.8527 106.101 11.5285C106.101 10.2043 106.943 9.34741 108.272 9.34741C109.602 9.34741 110.4 10.1264 110.4 11.4506V11.7232H107.031V11.7621C107.076 12.5021 107.563 12.9695 108.272 12.9695C108.848 12.9695 109.247 12.7748 109.38 12.4632H110.311ZM107.031 11.139H109.425C109.425 10.4769 108.937 10.0485 108.272 10.0485C107.607 10.0485 107.076 10.4769 107.031 11.139Z" fill="white"/>
<path d="M26.0598 18.7726C26.0155 16.241 28.453 14.9947 28.5417 14.9168C27.1678 13.1642 25.0848 12.9305 24.3313 12.9305C22.5585 12.7747 20.8301 13.8653 19.9437 13.8653C19.013 13.8653 17.6391 12.9695 16.1322 12.9695C14.2265 13.0084 12.4094 13.9821 11.4344 15.501C9.39569 18.6168 10.9026 23.1347 12.8526 25.6663C13.8276 26.8737 14.9799 28.2758 16.4425 28.1979C17.905 28.1589 18.4368 27.38 20.2096 27.38C21.9381 27.38 22.4699 28.1979 23.9768 28.1589C25.5279 28.12 26.5473 26.9126 27.478 25.7053C28.586 24.3031 29.0735 22.901 29.0735 22.8621C29.1178 22.8621 26.1041 21.8495 26.0598 18.7726Z" fill="white"/>
<path d="M23.2233 11.2946C24.0211 10.4378 24.5529 9.26938 24.3756 8.06201C23.2233 8.10096 21.8051 8.76306 21.0074 9.58096C20.2983 10.321 19.6335 11.5283 19.8107 12.6967C21.0517 12.8136 22.3813 12.1515 23.2233 11.2946Z" fill="white"/>
<path d="M44.541 25.1212H39.5329L38.3363 28.237H36.2089L40.9511 16.7476H43.1227L47.8649 28.1981H45.7376L44.541 25.1212ZM40.0647 23.6802H44.0091L42.0591 18.656H42.0148L40.0647 23.6802Z" fill="white"/>
<path d="M58.0584 24.0305C58.0584 26.64 56.4629 28.3148 54.0696 28.3148C52.6957 28.3148 51.632 27.7695 51.0559 26.8348H51.0116V31.0021H49.0615V19.8242H50.9673V21.2263H51.0116C51.5434 20.3305 52.6957 19.7463 54.0253 19.7463C56.4629 19.7463 58.0584 21.4211 58.0584 24.0305ZM56.064 24.0305C56.064 22.3169 55.0446 21.2263 53.5378 21.2263C52.0309 21.2263 51.0559 22.3558 51.0559 24.0305C51.0559 25.7053 52.0752 26.8348 53.5378 26.8348C55.089 26.8348 56.064 25.7442 56.064 24.0305Z" fill="white"/>
<path d="M68.562 24.0305C68.562 26.64 66.9665 28.3148 64.5733 28.3148C63.1994 28.3148 62.1357 27.7695 61.5596 26.8348H61.5152V31.0021H59.5652V19.8242H61.4709V21.2263H61.5152C62.0471 20.3305 63.1994 19.7463 64.529 19.7463C66.9665 19.7463 68.562 21.4211 68.562 24.0305ZM66.5676 24.0305C66.5676 22.3169 65.5483 21.2263 64.0414 21.2263C62.5346 21.2263 61.5596 22.3558 61.5596 24.0305C61.5596 25.7053 62.5789 26.8348 64.0414 26.8348C65.5483 26.8348 66.5676 25.7442 66.5676 24.0305Z" fill="white"/>
<path d="M75.5202 25.0043C75.6532 26.1338 76.9385 26.8738 78.6669 26.8738C80.3067 26.8738 81.5033 26.1338 81.5033 25.0822C81.5033 24.1864 80.7942 23.6412 79.1101 23.2906L77.426 22.9401C75.0327 22.4338 73.9247 21.4601 73.9247 19.8243C73.9247 17.838 75.8748 16.4749 78.6669 16.4749C81.4147 16.4749 83.3204 17.838 83.4091 19.8243H81.4147C81.2818 18.6949 80.2181 17.9938 78.6226 17.9938C77.0271 17.9938 75.9634 18.6949 75.9634 19.7075C75.9634 20.5254 76.6725 20.9927 78.3567 21.3822L79.8192 21.6938C82.5227 22.2391 83.6307 23.2127 83.6307 24.8875C83.6307 27.0296 81.6806 28.3927 78.5783 28.3927C75.6975 28.3927 73.7031 27.0685 73.6145 25.0043H75.5202Z" fill="white"/>
<path d="M87.7523 17.8379V19.8242H89.5694V21.1874H87.7523V25.8221C87.7523 26.5232 88.1069 26.8737 88.9046 26.8737C89.1262 26.8737 89.4364 26.8347 89.5694 26.8347V28.1979C89.3478 28.2368 88.9046 28.2758 88.4614 28.2758C86.5114 28.2758 85.7579 27.6526 85.7579 26.0168V21.1874H84.384V19.8242H85.7579V17.8379H87.7523Z" fill="white"/>
<path d="M90.6332 24.0305C90.6332 21.3821 92.406 19.7463 95.1538 19.7463C97.9016 19.7463 99.6743 21.4211 99.6743 24.0305C99.6743 26.679 97.9459 28.3148 95.1538 28.3148C92.3616 28.3148 90.6332 26.679 90.6332 24.0305ZM97.68 24.0305C97.68 22.239 96.7493 21.1484 95.1538 21.1484C93.5583 21.1484 92.6276 22.239 92.6276 24.0305C92.6276 25.8611 93.5583 26.9127 95.1538 26.9127C96.7049 26.9127 97.68 25.8611 97.68 24.0305Z" fill="white"/>
<path d="M101.27 19.8242H103.131V21.2653H103.176C103.486 20.3305 104.328 19.7463 105.48 19.7463C105.746 19.7463 106.012 19.7853 106.145 19.8242V21.4211C106.012 21.3821 105.657 21.3042 105.259 21.3042C104.018 21.3042 103.22 22.0442 103.22 23.2127V28.1979H101.27V19.8242Z" fill="white"/>
<path d="M115.186 25.7442C114.92 27.2632 113.236 28.3148 111.064 28.3148C108.272 28.3148 106.588 26.679 106.588 24.0695C106.588 21.46 108.317 19.7463 111.02 19.7463C113.679 19.7463 115.319 21.3432 115.319 23.8748V24.459H108.583V24.5758C108.583 26.0169 109.602 26.9516 111.153 26.9516C112.261 26.9516 113.103 26.4842 113.369 25.7832H115.186V25.7442ZM108.538 23.2516H113.325C113.28 21.9663 112.35 21.1095 110.976 21.1095C109.646 21.1484 108.671 22.0053 108.538 23.2516Z" fill="white"/>
</g>
<defs>
<clipPath id="clip0_6_4317">
<rect width="126" height="37" fill="white"/>
</clipPath>
</defs>
</svg>
